<?xml version="1.0"?>
<svg xmlns="http://www.w3.org/2000/svg" xmlns:xlink="http://www.w3.org/1999/xlink" xmlns:svgjs="http://svgjs.com/svgjs" version="1.1" width="512" height="512" x="0" y="0" viewBox="0 0 512 512" style="enable-background:new 0 0 512 512" xml:space="preserve" class=""><g><g xmlns="http://www.w3.org/2000/svg"><g><g><path d="m423.914 211.524h-335.828l17.075 203.864h301.678z" fill="#20b2aa" data-original="#ccf5fc" style="" class=""/></g><path d="m105.161 415.388 2.867 43.053c1.114 16.725 15.005 29.721 31.766 29.721h232.412c16.762 0 30.652-12.996 31.766-29.721l2.867-43.053" fill="#20b2aa" data-original="#e2e9ee" style="" class=""/><path d="m414.143 105.119c-13.228 0-25.765 2.936-37.013 8.179-15.911-51.802-64.123-89.461-121.13-89.461-57.003 0-105.213 37.654-121.127 89.451-11.249-5.238-23.789-8.169-37.016-8.169-48.522 0-87.857 39.344-87.857 87.877s39.335 87.877 87.857 87.877c29.757 0 56.045-14.804 71.933-37.446 22.613 21.012 52.911 33.861 86.21 33.861s63.597-12.849 86.21-33.861c15.888 22.642 42.176 37.446 71.933 37.446 48.522 0 87.857-39.343 87.857-87.877 0-48.533-39.335-87.877-87.857-87.877z" fill="#93cbb8" data-original="#faf7f5" style="" class=""/></g><g><g><path d="m332.447 380.271c-.465 0-.935-.033-1.407-.099-5.469-.771-9.278-5.828-8.508-11.297l7.35-52.179c.771-5.469 5.844-9.274 11.297-8.508 5.469.771 9.278 5.828 8.508 11.297l-7.35 52.179c-.704 4.995-4.985 8.607-9.89 8.607z" fill="#000000" data-original="#000000" style="" class=""/></g><g><path d="m179.553 380.271c-4.904 0-9.186-3.611-9.89-8.607l-7.35-52.179c-.771-5.469 3.039-10.526 8.508-11.297 5.465-.767 10.526 3.039 11.297 8.508l7.35 52.179c.771 5.469-3.039 10.526-8.508 11.297-.473.066-.942.099-1.407.099z" fill="#000000" data-original="#000000" style="" class=""/></g><g><path d="m256 373.966c-5.522 0-10-4.477-10-10v-42.724c0-5.523 4.478-10 10-10s10 4.477 10 10v42.724c0 5.523-4.478 10-10 10z" fill="#000000" data-original="#000000" style="" class=""/></g><path d="m512 192.996c0-53.97-43.898-97.877-97.857-97.877-10.686 0-21.087 1.691-31.048 5.04-9.261-23.241-25.009-43.921-45.115-59.014-23.798-17.865-52.147-27.308-81.98-27.308-29.831 0-58.178 9.441-81.975 27.304-20.107 15.092-35.855 35.771-45.117 59.011-9.96-3.344-20.363-5.033-31.051-5.033-53.959 0-97.857 43.907-97.857 97.877 0 49.481 36.9 90.503 84.623 96.985l13.427 169.126c1.459 21.9 19.795 39.056 41.744 39.056h232.412c21.949 0 40.285-17.155 41.744-39.056l13.427-169.125c47.723-6.482 84.623-47.505 84.623-96.986zm-492 0c0-42.941 34.927-77.877 77.857-77.877 11.452 0 22.485 2.434 32.794 7.234 2.621 1.22 5.643 1.247 8.285.072s4.646-3.436 5.495-6.2c15.141-49.279 59.977-82.388 111.569-82.388 51.597 0 96.434 33.113 111.57 82.397.85 2.765 2.854 5.027 5.497 6.202 2.644 1.175 5.667 1.148 8.287-.074 10.311-4.806 21.342-7.243 32.788-7.243 42.931 0 77.857 34.936 77.857 77.877s-34.927 77.877-77.857 77.877c-25.333 0-49.164-12.407-63.747-33.189-1.66-2.366-4.263-3.898-7.137-4.201-.351-.037-.7-.055-1.05-.055-2.512 0-4.947.947-6.806 2.674-21.644 20.111-49.843 31.186-79.403 31.186s-57.76-11.076-79.403-31.187c-2.117-1.968-4.988-2.925-7.855-2.619-2.874.303-5.477 1.835-7.137 4.201-14.584 20.783-38.415 33.19-63.747 33.19-42.93 0-77.857-34.935-77.857-77.877zm352.206 285.167h-232.412c-11.456 0-21.027-8.955-21.789-20.385l-2.157-32.389h99.946c5.522 0 10-4.477 10-10s-4.478-10-10-10h-101.437l-9.611-114.759c25.594-1.813 49.475-13.663 66.431-32.84 24.083 19.094 53.813 29.499 84.823 29.499s60.74-10.404 84.823-29.498c16.955 19.177 40.835 31.026 66.431 32.839l-9.611 114.759h-91.437c-5.522 0-10 4.477-10 10s4.478 10 10 10h89.946l-2.157 32.389c-.762 11.43-10.333 20.385-21.789 20.385z" fill="#000000" data-original="#000000" style="" class=""/><g><path d="m261.18 425.39c-4.241 0-8.096-2.786-9.46-6.789-1.326-3.894-.062-8.326 3.116-10.94 3.257-2.679 8.038-2.997 11.62-.767 3.492 2.174 5.347 6.406 4.534 10.446-.928 4.613-5.096 8.05-9.81 8.05z" fill="#000000" data-original="#000000" style="" class=""/></g></g></g></g></svg>
