<?xml version="1.0"?>
<svg xmlns="http://www.w3.org/2000/svg" xmlns:xlink="http://www.w3.org/1999/xlink" xmlns:svgjs="http://svgjs.com/svgjs" version="1.1" width="512" height="512" x="0" y="0" viewBox="0 0 511.973 511.973" style="enable-background:new 0 0 512 512" xml:space="preserve" class=""><g>
<g xmlns="http://www.w3.org/2000/svg" transform="translate(0 -1)">
	<path style="" d="M127.985,222.857v0.683c-23.025,3.327-42.032,19.704-48.725,41.984H51.185   c-14.281-28.892-12.069-63.207,5.803-90.027c1.621-2.475,2.731-3.84,2.731-3.84S93.852,163.123,127.985,222.857z" fill="#93cbb8" data-original="#ffa800" class=""/>
	<path style="" d="M123.719,224.307c-21.222,4.612-38.256,20.403-44.459,41.216H51.185   c-14.281-28.892-12.069-63.207,5.803-90.027c12.629,5.717,29.013,18.688,45.397,47.36v0.683c2.818-0.488,5.674-0.717,8.533-0.683   C115.226,222.861,119.52,223.348,123.719,224.307L123.719,224.307z" fill="#20b2aa" data-original="#fedd0a" class=""/>
	<path style="" d="M49.668,256.508l0.482,0.482c1.146-0.905,8.422,9.318,9.569,8.533c2.233-3.56,13.929,3.138,17.067,0   c2.052-2.052-6.626-20.385-9.016-27.118c-8.568-20.937-9.063-44.309-1.388-65.589c-2.897-0.604-4.646-0.784-4.646-0.784   S31.566,190.134,49.668,256.508z" fill="#93cbb8" data-original="#ffffff" class=""/>
	<path style="" d="M501.721,276.446l-3.131,7.936c-23.183,59.232-64.772,109.455-118.644,143.275h-0.083v18.005   c0.076,4.204-1.523,8.266-4.443,11.291c-2.921,3.025-6.924,4.765-11.129,4.837H164.739c-4.204-0.071-8.208-1.811-11.129-4.836   s-4.519-7.087-4.443-11.292v-18.005c-53.916-33.79-95.539-84.02-118.726-143.275l-3.131-7.936   c-1.724-1.866-2.205-4.565-1.231-6.912c0.974-2.347,3.224-3.913,5.762-4.011h465.35c2.539,0.098,4.789,1.664,5.763,4.011   C503.926,271.881,503.446,274.58,501.721,276.446L501.721,276.446z" fill="#93cbb8" data-original="#ffa800" class=""/>
	<path style="" d="M476.092,276.446l-3.184,7.936c-23.782,59.478-66.086,109.716-120.647,143.275h-0.084v18.005   c0.042,4.24-1.604,8.322-4.574,11.347c-2.97,3.025-7.022,4.745-11.261,4.781H158.555c-4.24-0.036-8.291-1.756-11.261-4.781   s-4.616-7.107-4.574-11.347v-18.005c-54.606-33.53-96.945-83.774-120.731-143.275l-3.184-7.936   c-1.746-1.872-2.229-4.595-1.234-6.954s3.283-3.913,5.842-3.969h448.071c2.559,0.056,4.847,1.61,5.842,3.969   C478.321,271.851,477.838,274.574,476.092,276.446z" fill="#20b2aa" data-original="#fedd0a" class=""/>
	<g>
		<path style="" d="M375.449,384.99l0.037-0.021c33.309-20.404,59.975-50.041,76.761-85.312L375.449,384.99z" fill="#93cbb8" data-original="#ffa800" class=""/>
		<path style="" d="M193.777,265.523H79.26c6.203-20.813,23.236-36.604,44.459-41.216    c4.199-0.96,8.493-1.446,12.8-1.451C162.927,222.89,186.193,240.227,193.777,265.523L193.777,265.523z" fill="#93cbb8" data-original="#ffa800" class=""/>
		<path style="" d="M414.193,265.523H251.377c9.741-31.092,36.384-53.891,68.608-58.709    c4.232-0.687,8.513-1.029,12.8-1.024C370.061,205.766,403.032,229.958,414.193,265.523L414.193,265.523z" fill="#93cbb8" data-original="#ffa800" class=""/>
		<path style="" d="M324.252,205.79l-0.085,0.512c-33.922,3.411-62.55,26.703-72.789,59.221h-29.525    c-19.285-70.656,53.248-107.435,90.368-121.344c6.729-2.592,13.594-4.814,20.565-6.656    C332.785,137.523,358.385,158.515,324.252,205.79z" fill="#93cbb8" data-original="#ffa800" class=""/>
		<path style="" d="M469.319,205.79c0,0,0,25.6-25.6,59.733h-29.525c-5.352-17.035-15.919-31.959-30.208-42.667    c9.604-12.317,23.276-20.816,38.571-23.979C438.481,196.055,454.892,198.48,469.319,205.79z" fill="#93cbb8" data-original="#ffa800" class=""/>
	</g>
	<path style="" d="M247.452,180.19c0,0.683-0.085,1.365-0.085,2.048c-21.163,19.883-35.413,47.189-25.515,83.285   h-28.075c-7.584-25.296-30.85-42.633-57.259-42.667c-2.856,0.054-5.705,0.282-8.533,0.683v-0.683   c-2.219-3.84-4.352-7.339-6.485-10.581c-0.171-0.171-0.256-0.341-0.341-0.427c-2.048-3.157-4.181-6.059-6.229-8.704   c-6.74-18.773-4.921-39.557,4.977-56.874s26.883-29.432,46.479-33.153c4.221-0.79,8.506-1.19,12.8-1.195   c18.107-0.005,35.474,7.186,48.277,19.989C240.266,144.716,247.457,162.083,247.452,180.19L247.452,180.19z" fill="#93cbb8" data-original="#d22047" class=""/>
	<g>
		<path style="" d="M145.048,180.19c-0.005-9.054,3.589-17.739,9.991-24.141c6.402-6.402,15.087-9.997,24.141-9.992    L145.048,180.19z" fill="#93cbb8" data-original="#ffa800" class=""/>
		<path style="" d="M466.844,134.793l-92.416,81.92c-7.745-4.35-16.124-7.459-24.832-9.216    c-1.008-0.254-2.036-0.425-3.072-0.512c-4.537-0.79-9.133-1.189-13.739-1.195c-2.881-0.002-5.759,0.169-8.619,0.512l0.085-0.512    c1.451-1.963,2.731-3.925,4.011-5.803c6.422-9.294,10.866-19.808,13.056-30.891l75.093-84.736    c6.224-8.575,15.879-14.009,26.439-14.878s20.974,2.912,28.516,10.355c7.515,7.506,11.347,17.939,10.475,28.526    S475.486,128.616,466.844,134.793z" fill="#93cbb8" data-original="#ffa800" class=""/>
	</g>
	<path style="" d="M179.185,461.79h-25.6c-4.278,0.003-8.383-1.695-11.408-4.72c-3.025-3.025-4.723-7.13-4.72-11.408   v-18.005c-55.371-33.243-98.505-83.502-122.965-143.275l-3.243-7.936c-1.77-1.879-2.255-4.629-1.236-7.001s3.348-3.912,5.93-3.922   h25.6c-2.581,0.01-4.911,1.55-5.93,3.922s-0.533,5.122,1.236,7.001l3.243,7.936c24.46,59.772,67.595,110.031,122.965,143.275   v18.005c-0.003,4.278,1.695,8.383,4.72,11.408C170.803,460.095,174.907,461.793,179.185,461.79L179.185,461.79z" fill="#93cbb8" data-original="#ffffff" class=""/>
	<g>
		<path style="" d="M349.849,384.99l0.037-0.021c33.309-20.404,59.975-50.041,76.761-85.312L349.849,384.99z" fill="#20b2aa" data-original="#fedd0a" class=""/>
		<path style="" d="M168.177,265.523H79.26c6.203-20.813,23.236-36.604,44.459-41.216    C144.913,228.973,161.923,244.742,168.177,265.523z" fill="#20b2aa" data-original="#fedd0a" class=""/>
		<path style="" d="M290.631,207.497c-7.37,1.432-14.516,3.843-21.248,7.168    C276.088,211.277,283.243,208.863,290.631,207.497L290.631,207.497z" fill="#20b2aa" data-original="#fedd0a" class=""/>
		<path style="" d="M388.593,265.523H251.377c9.741-31.092,36.384-53.891,68.608-58.709    C352.21,211.633,378.852,234.431,388.593,265.523L388.593,265.523z" fill="#20b2aa" data-original="#fedd0a" class=""/>
		<path style="" d="M319.985,206.814c-32.224,4.819-58.867,27.617-68.608,58.709h-29.525    c-19.285-70.656,53.248-107.435,90.368-121.344c5.205,9.472,9.643,29.44-13.568,61.611l-0.085,0.427    c2.816-0.256,5.717-0.427,8.619-0.427C311.473,205.785,315.753,206.127,319.985,206.814z" fill="#20b2aa" data-original="#fedd0a" class=""/>
		<path style="" d="M443.719,205.79c0,0,0,25.6-25.6,59.733h-3.925c-5.352-17.035-15.919-31.959-30.208-42.667    c9.604-12.317,23.276-20.816,38.571-23.979C429.877,200.267,436.989,202.59,443.719,205.79L443.719,205.79z" fill="#20b2aa" data-original="#fedd0a" class=""/>
	</g>
	<path style="" d="M221.852,180.19c0,0.683-0.085,1.365-0.085,2.048c-21.163,19.883-35.413,47.189-25.515,83.285   h-2.475c-7.584-25.296-30.85-42.633-57.259-42.667c-2.856,0.054-5.705,0.282-8.533,0.683v-0.683   c-2.219-3.84-4.352-7.339-6.485-10.581c-0.171-0.171-0.256-0.341-0.341-0.427c-2.048-3.157-4.181-6.059-6.229-8.704   c-6.74-18.773-4.921-39.557,4.977-56.874s26.883-29.432,46.479-33.153C198.579,119.259,221.864,147.416,221.852,180.19z" fill="#93cbb8" data-original="#db4e6c" class=""/>
	<path style="" d="M441.244,126.259l-91.648,81.237l-0.768,0.683c-0.768-0.427-1.536-0.853-2.304-1.195   c-5.772-3.084-11.906-5.435-18.261-6.997c6.422-9.294,10.866-19.808,13.056-30.891l75.093-84.736   c6.292-8.902,16.333-14.41,27.221-14.933c0.77,0.555,1.485,1.184,2.133,1.877c7.515,7.506,11.347,17.939,10.475,28.526   C455.371,110.416,449.886,120.083,441.244,126.259z" fill="#20b2aa" data-original="#fedd0a" class=""/>
	<g>
		<path d="M359.344,470.323H152.627c-13.601-0.011-24.626-11.032-24.642-24.633v-13.25c-29.13-18.086-55.022-40.928-76.6-67.575    c-1.92-2.37-2.43-5.584-1.338-8.432s3.621-4.897,6.633-5.375c3.013-0.478,6.051,0.687,7.972,3.057    c21.347,26.369,47.158,48.784,76.258,66.225c2.569,1.543,4.141,4.32,4.142,7.317v18.033c0.007,4.179,3.396,7.565,7.575,7.567    h206.717c4.179-0.002,7.568-3.387,7.575-7.567v-18.033c0-2.941,1.515-5.674,4.008-7.233    c53.774-32.396,95.707-81.224,119.608-139.275l2.908-7.092H18.527l2.892,7.058c0.858,2.1,1.733,4.183,2.642,6.258    c1.855,4.31-0.119,9.31-4.419,11.189s-9.31-0.067-11.214-4.356c-0.958-2.192-1.9-4.408-2.808-6.625l-2.75-6.717    c-3.321-4.574-3.797-10.624-1.232-15.661s7.738-8.21,13.39-8.214h481.917c5.653,0.004,10.826,3.177,13.391,8.214    c2.565,5.037,2.089,11.087-1.232,15.661l-2.775,6.75c-24.64,59.876-67.426,110.525-122.342,144.825v13.25    C383.969,459.291,372.945,470.312,359.344,470.323L359.344,470.323z" fill="#000000" data-original="#000000" style="" class=""/>
		<path d="M34.294,333.79h-0.175c-4.698-0.048-8.474-3.883-8.45-8.581c0.024-4.698,3.839-8.494,8.537-8.494s8.513,3.796,8.537,8.494    C42.768,329.907,38.992,333.742,34.294,333.79L34.294,333.79z" fill="#000000" data-original="#000000" style="" class=""/>
		<path d="M375.477,393.506c-3.67,0.006-6.933-2.338-8.099-5.818c-1.166-3.48,0.025-7.316,2.957-9.524l0.033-0.025    c0.272-0.206,0.555-0.395,0.85-0.567c31.741-19.435,57.16-47.662,73.175-81.258c1.194-2.805,3.793-4.759,6.819-5.127    s6.018,0.905,7.85,3.342c1.832,2.436,2.225,5.665,1.031,8.469c-17.548,36.9-45.421,67.92-80.242,89.3    C378.529,393.087,377.018,393.505,375.477,393.506z" fill="#000000" data-original="#000000" style="" class=""/>
		<path d="M247.452,436.19H136.519c-4.713,0-8.533-3.82-8.533-8.533s3.821-8.533,8.533-8.533h110.933    c4.713,0,8.533,3.82,8.533,8.533S252.165,436.19,247.452,436.19z" fill="#000000" data-original="#000000" style="" class=""/>
		<path d="M375.452,436.19h-25.6c-4.713,0-8.533-3.82-8.533-8.533s3.82-8.533,8.533-8.533h25.6c4.713,0,8.533,3.82,8.533,8.533    S380.165,436.19,375.452,436.19z" fill="#000000" data-original="#000000" style="" class=""/>
		<path d="M193.744,274.057H79.294c-2.694,0.001-5.23-1.271-6.84-3.431s-2.105-4.954-1.335-7.535    c8.613-28.932,35.213-48.767,65.4-48.767s56.787,19.835,65.4,48.767c0.77,2.582,0.275,5.375-1.335,7.535    C198.974,272.785,196.438,274.058,193.744,274.057L193.744,274.057z M92.219,256.99h88.6c-9.128-15.839-26.019-25.6-44.3-25.6    C118.237,231.39,101.347,241.151,92.219,256.99L92.219,256.99z" fill="#000000" data-original="#000000" style="" class=""/>
		<path d="M414.185,274.057H251.36c-2.718,0.002-5.274-1.291-6.882-3.482s-2.076-5.017-1.259-7.61    c12.302-39.107,48.558-65.708,89.554-65.708s77.252,26.602,89.554,65.708c0.812,2.592,0.343,5.416-1.265,7.606    C419.455,272.76,416.902,274.055,414.185,274.057L414.185,274.057z M263.944,256.99h137.658    c-12.981-26.137-39.646-42.667-68.829-42.667S276.925,230.853,263.944,256.99L263.944,256.99z" fill="#000000" data-original="#000000" style="" class=""/>
		<path d="M79.294,274.057H51.185c-3.232,0-6.187-1.826-7.633-4.717c-16.481-33.389-12.809-73.205,9.5-103.017    c1.169-1.459,2.785-2.493,4.6-2.942c1.642-0.442,40.825-9.367,77.742,55.242c0.735,1.29,1.123,2.749,1.125,4.233    c0.036,4.403-3.022,8.226-7.325,9.158c-19.715,2.846-35.99,16.866-41.725,35.942C86.394,271.575,83.068,274.056,79.294,274.057    L79.294,274.057z M56.627,256.99h16.625c7.535-18.495,22.777-32.772,41.725-39.083C92.252,182.974,71.86,180.04,64.41,179.732    C48.947,202.522,46.02,231.574,56.627,256.99L56.627,256.99z" fill="#000000" data-original="#000000" style="" class=""/>
		<path d="M251.36,274.057h-29.517c-3.849-0.001-7.222-2.578-8.233-6.292c-6.803-22.656-3.84-47.123,8.175-67.5    c29.7-50.717,105.7-70.217,108.925-71.017c2.616-0.652,5.387-0.031,7.475,1.675c1.292,1.058,31.125,26.458-6.55,79.208    c-1.321,2.524-3.785,4.248-6.608,4.625c-30.554,3.038-56.343,24.025-65.525,53.325    C258.385,271.638,255.088,274.057,251.36,274.057z M228.61,256.99h16.708c12.232-31.415,40.406-53.832,73.767-58.692    c19.658-28.533,14.508-44.725,10.692-51.05c-16.883,5.125-71.317,24.117-93.292,61.683    C227.943,223.403,225.133,240.55,228.61,256.99L228.61,256.99z" fill="#000000" data-original="#000000" style="" class=""/>
		<path d="M443.71,274.057h-29.525c-3.728,0.001-7.024-2.419-8.142-5.975c-4.801-15.336-14.316-28.767-27.192-38.383    c-3.679-2.771-4.504-7.957-1.867-11.733c0.35-0.483,34.7-48.175,95.9-19.925c3.022,1.396,4.957,4.421,4.959,7.75    c0,1.158-0.308,28.858-27.308,64.85C448.925,272.79,446.396,274.056,443.71,274.057L443.71,274.057z M420.227,256.99h19.15    c10.203-13.566,17.288-29.215,20.75-45.833c-21.495-9.969-46.906-5.709-63.975,10.725    C406.776,231.572,415.016,243.588,420.227,256.99L420.227,256.99z" fill="#000000" data-original="#000000" style="" class=""/>
		<path d="M221.844,274.057h-28.1c-3.774-0.001-7.1-2.482-8.175-6.1c-6.557-21.63-26.448-36.459-49.05-36.567    c-2.453,0.037-4.901,0.245-7.325,0.625c-4.361,0.624-8.481-2.174-9.508-6.458c-1.783-3.058-3.567-5.917-5.342-8.6    c-2.25-3.333-4.2-6.067-6.142-8.583c-0.544-0.71-0.974-1.5-1.275-2.342c-10.312-28.809-2.531-60.99,19.803-81.906    s54.956-26.572,83.027-14.395s46.231,39.861,46.22,70.459c0,0.583-0.033,1.158-0.075,1.725c-0.057,2.448-1.026,4.787-2.717,6.558    c-22.975,21.608-30.75,46.775-23.108,74.808c0.701,2.566,0.165,5.312-1.45,7.425C227.012,272.82,224.503,274.059,221.844,274.057z     M199.777,256.99h11.508c-4.514-29.094,5.83-58.516,27.558-78.383c-0.552-23.482-14.822-44.459-36.46-53.597    s-46.624-4.74-63.841,11.238s-23.466,40.567-15.966,62.826c1.883,2.492,3.775,5.161,5.675,8.008    c1.658,2.492,3.191,4.9,4.683,7.367c1.151-0.075,2.351-0.125,3.584-0.125C164.289,214.458,189.249,231.293,199.777,256.99    L199.777,256.99z" fill="#000000" data-original="#000000" style="" class=""/>
		<path d="M179.177,120.457c-2.264,0.001-4.435-0.897-6.035-2.498c-1.601-1.601-2.499-3.772-2.498-6.035    c-0.018-18.841-15.284-34.111-34.125-34.133c-4.713,0-8.533-3.821-8.533-8.533s3.821-8.533,8.533-8.533    c28.261,0.035,51.162,22.939,51.191,51.2c0.001,2.264-0.897,4.435-2.498,6.035C183.612,119.559,181.44,120.458,179.177,120.457z" fill="#000000" data-original="#000000" style="" class=""/>
		<path d="M179.177,120.457c-2.264,0.001-4.435-0.897-6.035-2.498c-1.601-1.601-2.499-3.772-2.498-6.035    c0.031-28.264,22.936-51.169,51.2-51.2c4.713,0,8.533,3.821,8.533,8.533s-3.821,8.533-8.533,8.533    c-18.844,0.019-34.115,15.29-34.133,34.133c0.001,2.264-0.897,4.435-2.498,6.035C183.612,119.559,181.44,120.458,179.177,120.457z    " fill="#000000" data-original="#000000" style="" class=""/>
		<path d="M145.052,188.723c-2.264,0.001-4.435-0.897-6.035-2.498c-1.601-1.601-2.499-3.772-2.498-6.035    c0.024-23.551,19.107-42.638,42.658-42.667c4.713,0,8.533,3.821,8.533,8.533c0,4.713-3.821,8.533-8.533,8.533    c-14.129,0.019-25.577,11.471-25.591,25.6c0.001,2.264-0.897,4.435-2.498,6.035C149.487,187.826,147.316,188.725,145.052,188.723    L145.052,188.723z" fill="#000000" data-original="#000000" style="" class=""/>
		<path d="M469.31,86.323c-3.451-0.001-6.562-2.08-7.882-5.268c-1.32-3.188-0.591-6.858,1.849-9.298l25.609-25.6    c3.341-3.281,8.701-3.256,12.012,0.054s3.335,8.671,0.054,12.012l-25.609,25.6C473.745,85.426,471.574,86.326,469.31,86.323z" fill="#000000" data-original="#000000" style="" class=""/>
		<path d="M469.31,86.323c-3.674,0-6.936-2.349-8.1-5.833l-8.525-25.6c-1.491-4.474,0.927-9.309,5.4-10.8    c4.474-1.491,9.309,0.927,10.8,5.4l8.525,25.6c1.484,4.473-0.931,9.304-5.4,10.8C471.139,86.175,470.227,86.321,469.31,86.323z" fill="#000000" data-original="#000000" style="" class=""/>
		<path d="M494.919,94.857c-0.918-0.001-1.83-0.15-2.7-0.442l-25.609-8.533c-2.9-0.958-5.066-3.393-5.68-6.384    s0.417-6.083,2.705-8.106c2.287-2.023,5.482-2.669,8.375-1.694l25.609,8.533c3.968,1.325,6.39,5.331,5.719,9.461    C502.667,91.822,499.102,94.855,494.919,94.857z" fill="#000000" data-original="#000000" style="" class=""/>
		<path d="M374.46,225.257c-1.465,0.001-2.905-0.375-4.183-1.092c-13.777-7.669-29.566-10.951-45.258-9.408    c-2.629,0.25-5.228-0.721-7.05-2.633c-1.818-1.922-2.64-4.579-2.225-7.192c0.232-1.473,0.772-2.882,1.583-4.133    c7.637-9.722,12.969-21.051,15.592-33.133c0.26-1.586,0.965-3.066,2.033-4.267l74.792-84.35    c10.392-14.226,28.175-21.017,45.404-17.338s30.688,17.139,34.365,34.369s-3.116,35.012-17.344,45.402l-92.05,81.625    C378.56,224.493,376.546,225.258,374.46,225.257L374.46,225.257z M339.685,197.515c11.624,0.872,22.985,3.902,33.5,8.933    l87.983-78.017c0.222-0.2,0.456-0.386,0.7-0.558c6.604-4.718,10.797-12.102,11.466-20.191c0.669-8.088-2.253-16.061-7.991-21.801    l0,0c-5.737-5.742-13.71-8.668-21.799-8c-8.089,0.668-15.475,4.862-20.192,11.467c-0.172,0.244-0.359,0.478-0.558,0.7    l-73.508,82.9C347.361,181.58,344.123,189.865,339.685,197.515L339.685,197.515z" fill="#000000" data-original="#000000" style="" class=""/>
		<path d="M435.177,111.923c-2.264,0.003-4.435-0.897-6.033-2.5l-17.067-17.067c-3.293-3.339-3.275-8.709,0.041-12.025    c3.316-3.316,8.687-3.334,12.025-0.041l17.067,17.067c2.44,2.441,3.169,6.11,1.849,9.299    C441.739,109.844,438.628,111.923,435.177,111.923z" fill="#000000" data-original="#000000" style="" class=""/>
		<path d="M409.577,137.523c-2.264,0.003-4.435-0.897-6.033-2.5l-17.067-17.067c-3.293-3.339-3.275-8.709,0.041-12.025    c3.316-3.316,8.687-3.334,12.025-0.041l17.067,17.067c2.44,2.441,3.17,6.11,1.849,9.299    C416.139,135.444,413.028,137.523,409.577,137.523z" fill="#000000" data-original="#000000" style="" class=""/>
		<path d="M383.977,171.657c-2.264,0.003-4.435-0.897-6.033-2.5l-17.067-17.067c-3.293-3.339-3.275-8.709,0.041-12.025    c3.316-3.316,8.687-3.334,12.025-0.041l17.067,17.067c2.44,2.441,3.169,6.11,1.849,9.299    C390.539,169.577,387.428,171.656,383.977,171.657z" fill="#000000" data-original="#000000" style="" class=""/>
	</g>
</g>
<g xmlns="http://www.w3.org/2000/svg">
</g>
<g xmlns="http://www.w3.org/2000/svg">
</g>
<g xmlns="http://www.w3.org/2000/svg">
</g>
<g xmlns="http://www.w3.org/2000/svg">
</g>
<g xmlns="http://www.w3.org/2000/svg">
</g>
<g xmlns="http://www.w3.org/2000/svg">
</g>
<g xmlns="http://www.w3.org/2000/svg">
</g>
<g xmlns="http://www.w3.org/2000/svg">
</g>
<g xmlns="http://www.w3.org/2000/svg">
</g>
<g xmlns="http://www.w3.org/2000/svg">
</g>
<g xmlns="http://www.w3.org/2000/svg">
</g>
<g xmlns="http://www.w3.org/2000/svg">
</g>
<g xmlns="http://www.w3.org/2000/svg">
</g>
<g xmlns="http://www.w3.org/2000/svg">
</g>
<g xmlns="http://www.w3.org/2000/svg">
</g>
</g></svg>
